# xmcd
#
# Track frame offsets:
#	150
#	14517
#	26918
#
# Disc length: 542 seconds
#
# Revision: 0
# Processed by: cddbd v1.5.2PL0 Copyright (c) Steve Scherf et al.
# Submitted via: audiograbber 1.83.01
#
DISCID=1f021c03
DTITLE=Danny Davis - Maxi CD - Ab und zu Himmel (LC 8453)
DYEAR=1900
DGENRE=Deutsch
TTITLE0=Ab und zu Himmel
TTITLE1=Alles Gelogen
TTITLE2=Warum immer ich
EXTD=
EXTT0=
EXTT1=
EXTT2=
PLAYORDER=
